<svg width="147" height="34" viewBox="0 0 147 34" fill="none" xmlns="http://www.w3.org/2000/svg">
<rect width="34" height="34" rx="8" fill="url(#paint0_radial_66_29)"/>
<mask id="mask0_66_29" style="mask-type:alpha" maskUnits="userSpaceOnUse" x="9" y="9" width="15" height="15">
<path d="M15.4972 9.41225C16.2953 8.95145 17.2787 8.95145 18.0768 9.41225L22.2982 11.8495C23.0963 12.3103 23.588 13.1619 23.588 14.0835V18.9579C23.588 19.8795 23.0963 20.7311 22.2982 21.1919L18.0768 23.6291C17.2787 24.0899 16.2953 24.0899 15.4972 23.6291L11.2758 21.1919C10.4777 20.7311 9.98599 19.8795 9.98599 18.9579V14.0835C9.98599 13.1619 10.4777 12.3103 11.2758 11.8495L15.4972 9.41225Z" fill="#C4C4C4"/>
</mask>
<g mask="url(#mask0_66_29)">
<rect width="8.60815" height="8.60815" transform="matrix(0.866025 0.5 -0.866025 0.5 16.7871 7.12286)" fill="white"/>
<rect width="7.92068" height="7.92068" transform="matrix(0.866025 0.5 -2.20305e-08 1 9.92731 12.9059)" fill="white"/>
<rect width="7.92068" height="7.92068" transform="matrix(0.866025 -0.5 2.20305e-08 1 17.636 16.1437)" fill="white"/>
</g>
<path d="M140.316 17.8519V24.0073H137.439V13.3601H140.181V15.2386H140.302C140.532 14.6193 140.917 14.1295 141.457 13.769C141.997 13.404 142.652 13.2214 143.422 13.2214C144.142 13.2214 144.77 13.3832 145.305 13.7067C145.841 14.0301 146.257 14.4923 146.554 15.093C146.851 15.6891 147 16.4008 147 17.228V24.0073H144.124V17.7548C144.128 17.1032 143.966 16.5949 143.638 16.2298C143.309 15.8601 142.857 15.6753 142.28 15.6753C141.893 15.6753 141.551 15.7608 141.254 15.9318C140.962 16.1027 140.732 16.3523 140.565 16.6804C140.403 17.0039 140.32 17.3944 140.316 17.8519Z" fill="#7451C3"/>
<path d="M132.259 24.0073V13.3601H135.135V24.0073H132.259ZM133.704 11.9876C133.276 11.9876 132.909 11.842 132.603 11.5509C132.302 11.2551 132.151 10.9016 132.151 10.4903C132.151 10.0837 132.302 9.73477 132.603 9.44363C132.909 9.14788 133.276 9 133.704 9C134.131 9 134.496 9.14788 134.798 9.44363C135.104 9.73477 135.257 10.0837 135.257 10.4903C135.257 10.9016 135.104 11.2551 134.798 11.5509C134.496 11.842 134.131 11.9876 133.704 11.9876Z" fill="#7451C3"/>
<path d="M114.917 24.0073V13.3601H117.658V15.2386H117.78C117.996 14.6147 118.356 14.1226 118.86 13.7621C119.364 13.4017 119.967 13.2214 120.669 13.2214C121.381 13.2214 121.986 13.404 122.486 13.769C122.985 14.1295 123.318 14.6193 123.485 15.2386H123.593C123.805 14.6286 124.187 14.1411 124.741 13.776C125.299 13.4063 125.958 13.2214 126.719 13.2214C127.687 13.2214 128.472 13.538 129.075 14.1711C129.683 14.7996 129.987 15.6915 129.987 16.8468V24.0073H127.117V17.429C127.117 16.8375 126.964 16.3939 126.658 16.0981C126.352 15.8024 125.97 15.6545 125.51 15.6545C124.988 15.6545 124.581 15.8255 124.288 16.1674C123.996 16.5048 123.85 16.9507 123.85 17.5053V24.0073H121.061V17.3666C121.061 16.8444 120.915 16.4285 120.622 16.1189C120.334 15.8093 119.954 15.6545 119.481 15.6545C119.161 15.6545 118.873 15.7377 118.617 15.904C118.365 16.0658 118.164 16.2945 118.016 16.5903C117.867 16.8814 117.793 17.2234 117.793 17.6162V24.0073H114.917Z" fill="#7451C3"/>
<path d="M106.651 24.1806C105.863 24.1806 105.15 23.9727 104.51 23.5567C103.876 23.1362 103.372 22.5193 102.998 21.706C102.629 20.888 102.444 19.8852 102.444 18.6976C102.444 17.4776 102.636 16.4632 103.018 15.6545C103.401 14.8412 103.91 14.2335 104.544 13.8315C105.183 13.4248 105.883 13.2215 106.644 13.2215C107.225 13.2215 107.709 13.3231 108.096 13.5265C108.487 13.7252 108.802 13.9747 109.041 14.2751C109.284 14.5709 109.469 14.862 109.595 15.1485H109.682V9.81104H112.552V24.0073H109.716V22.3021H109.595C109.46 22.5979 109.268 22.8913 109.021 23.1824C108.778 23.4689 108.46 23.7069 108.069 23.8964C107.682 24.0859 107.209 24.1806 106.651 24.1806ZM107.562 21.8307C108.026 21.8307 108.418 21.7013 108.737 21.4426C109.061 21.1791 109.309 20.8118 109.48 20.3404C109.655 19.869 109.743 19.3168 109.743 18.6837C109.743 18.0506 109.658 17.5007 109.487 17.0339C109.316 16.5672 109.068 16.2068 108.744 15.9526C108.42 15.6984 108.026 15.5713 107.562 15.5713C107.09 15.5713 106.691 15.703 106.367 15.9665C106.043 16.2299 105.798 16.5949 105.631 17.0617C105.465 17.5284 105.381 18.0691 105.381 18.6837C105.381 19.3029 105.465 19.8506 105.631 20.3265C105.802 20.7979 106.048 21.1676 106.367 21.4356C106.691 21.699 107.09 21.8307 107.562 21.8307Z" fill="#7451C3"/>
<path d="M91.5266 24.0073H88.3938L93.1673 9.81104H96.9349L101.702 24.0073H98.5688L95.1051 13.0551H94.9971L91.5266 24.0073ZM91.3308 18.4272H98.7309V20.7702H91.3308V18.4272Z" fill="#7451C3"/>
<path d="M77.7072 28V13.3601H80.543V15.1485H80.6713C80.7973 14.862 80.9797 14.5708 81.2182 14.2751C81.4613 13.9747 81.7764 13.7251 82.1635 13.5264C82.5551 13.3231 83.0412 13.2214 83.6219 13.2214C84.3781 13.2214 85.0758 13.4248 85.715 13.8314C86.3541 14.2335 86.865 14.8412 87.2476 15.6545C87.6302 16.4632 87.8215 17.4775 87.8215 18.6975C87.8215 19.8852 87.6347 20.888 87.2611 21.7059C86.892 22.5193 86.3879 23.1362 85.7487 23.5567C85.114 23.9726 84.4028 24.1806 83.6151 24.1806C83.057 24.1806 82.5821 24.0858 82.1905 23.8964C81.8034 23.7069 81.486 23.4689 81.2385 23.1824C80.9909 22.8913 80.8019 22.5978 80.6713 22.3021H80.5835V28H77.7072ZM80.5228 18.6837C80.5228 19.3168 80.6083 19.869 80.7793 20.3404C80.9504 20.8117 81.198 21.1791 81.522 21.4425C81.8461 21.7013 82.24 21.8307 82.7036 21.8307C83.1718 21.8307 83.5679 21.699 83.892 21.4356C84.216 21.1676 84.4614 20.7979 84.6279 20.3265C84.799 19.8505 84.8845 19.3029 84.8845 18.6837C84.8845 18.0691 84.8012 17.5284 84.6347 17.0616C84.4681 16.5949 84.2228 16.2298 83.8987 15.9664C83.5746 15.703 83.1763 15.5713 82.7036 15.5713C82.2355 15.5713 81.8394 15.6984 81.5153 15.9526C81.1957 16.2067 80.9504 16.5672 80.7793 17.0339C80.6083 17.5007 80.5228 18.0506 80.5228 18.6837Z" fill="#7451C3"/>
<path d="M69.6354 24.2083C68.9737 24.2083 68.384 24.0905 67.8664 23.8548C67.3487 23.6145 66.9391 23.261 66.6375 22.7942C66.3405 22.3229 66.1919 21.736 66.1919 21.0335C66.1919 20.442 66.2977 19.9453 66.5093 19.5432C66.7208 19.1412 67.0089 18.8177 67.3735 18.5728C67.7381 18.3278 68.1522 18.143 68.6158 18.0182C69.084 17.8935 69.5746 17.8057 70.0878 17.7548C70.6909 17.6901 71.1771 17.63 71.5462 17.5746C71.9153 17.5145 72.1831 17.4267 72.3496 17.3112C72.5162 17.1957 72.5994 17.0247 72.5994 16.7982V16.7566C72.5994 16.3176 72.4644 15.978 72.1943 15.7377C71.9288 15.4974 71.5507 15.3772 71.06 15.3772C70.5424 15.3772 70.1305 15.4951 69.8244 15.7307C69.5183 15.9618 69.3158 16.2529 69.2168 16.6041L66.5565 16.3823C66.6916 15.7354 66.9571 15.1762 67.3532 14.7048C67.7494 14.2289 68.2602 13.8638 68.8859 13.6096C69.5161 13.3508 70.2453 13.2214 71.0735 13.2214C71.6497 13.2214 72.2011 13.2908 72.7277 13.4294C73.2589 13.568 73.7293 13.7829 74.1389 14.074C74.553 14.3652 74.8793 14.7395 75.1179 15.197C75.3565 15.6499 75.4757 16.1929 75.4757 16.826V24.0073H72.748V22.5308H72.667C72.5004 22.8635 72.2776 23.157 71.9985 23.4111C71.7195 23.6607 71.3841 23.8571 70.9925 24.0003C70.6009 24.139 70.1485 24.2083 69.6354 24.2083ZM70.4591 22.1704C70.8822 22.1704 71.2558 22.0849 71.5799 21.9139C71.904 21.7383 72.1583 21.5026 72.3429 21.2068C72.5274 20.9111 72.6197 20.5761 72.6197 20.2017V19.0719C72.5297 19.1319 72.4059 19.1874 72.2484 19.2382C72.0953 19.2844 71.922 19.3283 71.7285 19.3699C71.5349 19.4069 71.3413 19.4415 71.1478 19.4739C70.9542 19.5016 70.7787 19.527 70.6212 19.5501C70.2836 19.601 69.9887 19.6819 69.7367 19.7928C69.4846 19.9037 69.2888 20.0539 69.1492 20.2433C69.0097 20.4282 68.9399 20.6592 68.9399 20.9365C68.9399 21.3385 69.0817 21.6459 69.3653 21.8584C69.6534 22.0664 70.018 22.1704 70.4591 22.1704Z" fill="#7451C3"/>
<path d="M57.7268 17.8519V24.0073H54.8505V13.3601H57.5918V15.2386H57.7133C57.9429 14.6193 58.3277 14.1295 58.8679 13.769C59.408 13.404 60.0629 13.2214 60.8327 13.2214C61.5529 13.2214 62.1808 13.3832 62.7164 13.7067C63.2521 14.0301 63.6684 14.4923 63.9655 15.093C64.2626 15.6891 64.4111 16.4008 64.4111 17.228V24.0073H61.5348V17.7548C61.5393 17.1032 61.3773 16.5949 61.0487 16.2298C60.7201 15.8601 60.2677 15.6753 59.6916 15.6753C59.3045 15.6753 58.9624 15.7608 58.6653 15.9318C58.3727 16.1027 58.1432 16.3523 57.9766 16.6804C57.8146 17.0039 57.7313 17.3944 57.7268 17.8519Z" fill="#7451C3"/>
<path d="M49.947 13.8938C49.8929 13.3347 49.6611 12.9003 49.2515 12.5907C48.8419 12.2811 48.286 12.1262 47.5838 12.1262C47.1067 12.1262 46.7038 12.1956 46.3752 12.3342C46.0466 12.4682 45.7946 12.6554 45.619 12.8957C45.448 13.136 45.3624 13.4086 45.3624 13.7136C45.3534 13.9678 45.4052 14.1896 45.5177 14.3791C45.6348 14.5685 45.7946 14.7326 45.9971 14.8712C46.1997 15.0052 46.4337 15.1231 46.6993 15.2248C46.9649 15.3218 47.2485 15.405 47.55 15.4743L48.7924 15.7793C49.3955 15.9179 49.9492 16.1028 50.4533 16.3338C50.9575 16.5649 51.3941 16.8491 51.7632 17.1864C52.1323 17.5238 52.4181 17.9212 52.6207 18.3787C52.8277 18.8362 52.9335 19.3607 52.938 19.9522C52.9335 20.821 52.7175 21.5743 52.2898 22.212C51.8667 22.8451 51.2546 23.3372 50.4533 23.6884C49.6566 24.035 48.6956 24.2083 47.5703 24.2083C46.454 24.2083 45.4817 24.0327 44.6535 23.6815C43.8298 23.3303 43.1861 22.8104 42.7225 22.1219C42.2633 21.4287 42.0225 20.5715 42 19.5502H44.829C44.8605 20.0262 44.9933 20.4236 45.2274 20.7424C45.466 21.0567 45.7833 21.2947 46.1794 21.4564C46.58 21.6135 47.0324 21.6921 47.5365 21.6921C48.0317 21.6921 48.4615 21.6182 48.8261 21.4703C49.1952 21.3224 49.4811 21.1168 49.6836 20.8534C49.8862 20.5899 49.9875 20.2873 49.9875 19.9453C49.9875 19.6264 49.8952 19.3584 49.7106 19.1412C49.5306 18.924 49.265 18.7392 48.9139 18.5867C48.5673 18.4342 48.142 18.2955 47.6378 18.1708L46.1321 17.7826C44.9663 17.4914 44.0458 17.0363 43.3706 16.417C42.6954 15.7978 42.3601 14.9637 42.3646 13.9146C42.3601 13.0551 42.5829 12.3042 43.033 11.6618C43.4877 11.0195 44.1111 10.5181 44.9033 10.1576C45.6955 9.79717 46.5958 9.61694 47.6041 9.61694C48.6303 9.61694 49.5261 9.79717 50.2913 10.1576C51.061 10.5181 51.6597 11.0195 52.0873 11.6618C52.5149 12.3042 52.7355 13.0482 52.749 13.8938H49.947Z" fill="#7451C3"/>
<defs>
<radialGradient id="paint0_radial_66_29" cx="0" cy="0" r="1" gradientUnits="userSpaceOnUse" gradientTransform="translate(-0.150904 -0.150933) scale(48.5998)">
<stop stop-color="#8D7CEF"/>
<stop offset="0.0356797" stop-color="#8472EF"/>
<stop offset="0.0907861" stop-color="#7E6BEF"/>
<stop offset="0.244" stop-color="#7C69EF"/>
<stop offset="0.3961" stop-color="#7A63E5"/>
<stop offset="0.510317" stop-color="#785CD9"/>
<stop offset="0.510417" stop-color="#785CD9"/>
<stop offset="0.6569" stop-color="#7553C9"/>
<stop offset="0.993" stop-color="#6C3A9D"/>
<stop offset="1" stop-color="#6C399C"/>
</radialGradient>
</defs>
</svg>
